<?xml version="1.0" encoding="UTF-8"?>
<!-- Generated by Pixelmator Pro 3.7.1 -->
<svg width="4266" height="4266" viewBox="0 0 4266 4266" xmlns="http://www.w3.org/2000/svg">
    <g id="Background">
        <g id="Icon">
            <g id="Group">
                <linearGradient id="linearGradient1" x1="499" y1="2133.475028" x2="3765" y2="2133.475028"
                    gradientUnits="userSpaceOnUse">
                    <stop offset="0" stop-color="#ff8500" stop-opacity="1" />
                    <stop offset="1" stop-color="#ffc900" stop-opacity="1" />
                </linearGradient>
                <path id="path1" fill="none" stroke="url(#linearGradient1)" stroke-width="148.595123"
                    d="M 3765 2133.475098 C 3765 2478.481934 3033.881104 2758.165039 2132 2758.165039 C 1230.119019 2758.165039 499 2478.481934 499 2133.475098 C 499 1788.468262 1230.119019 1508.785156 2132 1508.785156 C 3033.881104 1508.785156 3765 1788.468262 3765 2133.475098 Z" />
                <linearGradient id="linearGradient2" x1="1152.99275" y1="2133.475058" x2="3111.007264" y2="2133.475058"
                    gradientUnits="userSpaceOnUse">
                    <stop offset="0" stop-color="#ff8500" stop-opacity="1" />
                    <stop offset="1" stop-color="#ffc900" stop-opacity="1" />
                </linearGradient>
                <path id="path2" fill="none" stroke="url(#linearGradient2)" stroke-width="148.595123"
                    d="M 2948.5 3550.373047 C 2650.280273 3722.876465 2042.96582 3228.351074 1592.025269 2445.819824 C 1141.084839 1663.288818 1017.280212 889.080566 1315.5 716.577148 C 1613.719849 544.07373 2221.03418 1038.598877 2671.974609 1821.129883 C 3122.915283 2603.661133 3246.719727 3377.869629 2948.5 3550.373047 Z" />
                <linearGradient id="linearGradient3" x1="2118.976707" y1="2924.88395" x2="2954.605491" y2="1475.41807"
                    gradientUnits="userSpaceOnUse">
                    <stop offset="0" stop-color="#3478f6" stop-opacity="1" />
                    <stop offset="1" stop-color="#02d3ff" stop-opacity="1" />
                </linearGradient>
                <path id="Rectangle-copy" fill="url(#linearGradient3)" fill-rule="evenodd" stroke="none"
                    d="M 1333.009521 2403.394775 C 1333.009521 2687.96875 1563.702393 2918.661621 1848.276489 2918.661621 L 2403.179443 2918.661621 C 2687.753418 2918.661621 2918.446289 2687.96875 2918.446289 2403.394775 L 2918.446289 1848.491943 C 2918.446289 1563.917725 2687.753418 1333.224854 2403.179443 1333.224854 L 1848.276489 1333.224854 C 1563.702393 1333.224854 1333.009521 1563.917725 1333.009521 1848.491943 Z" />
                <path id="path3" fill="#ffffff" stroke="none"
                    d="M 2124.130127 1758.141602 C 1957.094849 1758.141602 1852.748047 1841.641113 1810.943726 2008.639648 C 1873.595459 1925.176758 1946.634644 1893.83252 2030.134033 1914.716553 C 2077.769775 1926.598145 2111.847412 1961.149658 2149.496826 1999.418701 C 2210.909424 2061.742432 2281.980469 2133.870605 2437.207031 2133.870605 C 2604.205566 2133.870605 2708.55249 2050.371094 2750.320313 1883.408936 C 2687.705078 1966.871826 2614.629395 1998.21582 2531.166504 1977.295654 C 2483.494141 1965.413818 2449.416748 1930.862549 2411.767334 1892.593506 C 2350.354492 1830.306152 2279.283447 1758.141602 2124.130127 1758.141602 Z M 1810.943726 2133.870605 C 1644.017822 2133.870605 1539.598145 2217.369873 1497.866699 2384.368652 C 1560.482056 2300.869141 1633.557617 2269.561523 1717.020508 2290.445313 C 1764.692871 2302.327148 1798.770508 2336.878418 1836.419922 2375.147461 C 1897.83252 2437.471191 1968.903564 2509.599365 2124.130127 2509.599365 C 2291.128662 2509.599365 2395.475586 2426.13623 2437.207031 2259.137695 C 2374.591553 2342.600586 2301.55249 2373.944824 2218.053223 2353.060791 C 2170.417236 2341.142822 2136.3396 2306.554688 2098.653809 2268.322266 C 2037.277588 2205.998535 1966.206543 2133.870605 1810.980103 2133.870605 Z" />
                <linearGradient id="linearGradient4" x1="1152.99275" y1="2133.475058" x2="3111.007264" y2="2133.475058"
                    gradientUnits="userSpaceOnUse">
                    <stop offset="0" stop-color="#ff8500" stop-opacity="1" />
                    <stop offset="1" stop-color="#ffc900" stop-opacity="1" />
                </linearGradient>
                <path id="path4" fill="none" stroke="url(#linearGradient4)" stroke-width="148.595123"
                    d="M 1315.5 3550.373047 C 1017.280212 3377.869629 1141.084839 2603.661133 1592.025269 1821.129883 C 2042.96582 1038.598877 2650.280273 544.07373 2948.5 716.577148 C 3246.719727 889.080566 3122.915283 1663.288818 2671.974609 2445.819824 C 2221.03418 3228.351074 1613.719849 3722.876465 1315.5 3550.373047 Z" />
            </g>
        </g>
    </g>
</svg>